<?xml version="1.0" encoding="utf-8"?>
<!-- Generator: Adobe Illustrator 27.0.0, SVG Export Plug-In . SVG Version: 6.00 Build 0)  -->
<svg version="1.1" id="레이어_1" xmlns="http://www.w3.org/2000/svg" xmlns:xlink="http://www.w3.org/1999/xlink" x="0px"
	 y="0px" width="331px" height="55.6px" viewBox="0 0 331 55.6" style="enable-background:new 0 0 331 55.6;" xml:space="preserve">
<g>
	<path d="M307,1.3c-8.5,17.5-16.9,34.8-25.4,52.3c1.1,0,3.6,0,4.9,0c1.8-4.2,4-9.3,5.8-13.4c0.3-0.7,0.7-0.9,1.4-0.9
		c6.7,0,13.3,0,20,0c0.8,0,1.2,0.2,1.5,1c1.7,3.9,4.2,9.2,6.1,13.3c3,0.1,6.5,0,9.7,0C323,36.1,315,18.8,307,1.3z M293.8,36.7
		c3.2-7.3,6.3-14.6,9.6-22.1c3.4,7.5,6.8,14.7,10.1,22.1C307,36.7,300.5,36.7,293.8,36.7z"/>
	<path d="M210,53.6c-12.3-12.6-24.5-24.9-36.9-37.5c0.3,12.6,0.7,25,1,37.4c-1.6,0-3.2,0-4.9,0c0.6-17.4,1.2-34.8,1.8-52.4
		c12.3,12.6,24.4,25.1,36.7,37.7c-0.4-12.3-0.8-24.3-1.2-36.4c1.7,0,3.2,0,4.9,0L210,53.6z"/>
	<path d="M33,26.5c0,1.6,0,3.1,0,4.6c-8.1-0.3-16.1-0.7-24.2-1c0,7.8,0,15.5,0,23.4c-3,0-5.8,0-8.8,0c0-17,0-34,0-51.1
		c11.7,0,23.3,0,35.1,0c0,1.5,0,3,0,4.6C26.4,6.3,17.6,5.6,8.8,5c0,7.5,0,15,0,22.6C16.9,27.2,24.9,26.9,33,26.5z"/>
	<path d="M116.5,2.4c3,0,5.8,0,8.8,0c0,16.2,0,32.3,0,48.6c9.5-0.7,18.9-1.3,28.3-2c0,1.6,0,3,0,4.6c-12.4,0-24.7,0-37.1,0
		C116.5,36.5,116.5,19.5,116.5,2.4z"/>
	<path d="M230.4,33.6c0,2.5,0.4,5.1,1,7.6c1.5,5.7,4.8,10,10.7,12.3c3.4,1.3,7,1.6,10.7,1.3c6.8-0.6,11.9-3.6,15-9.6
		c2-3.9,2.6-8.1,2.8-12.4c0.3-7.9,0.5-15.8,0.7-23.6c0.1-2,0-4.6,0.1-6.7h-4.8c0,0,0,0,0,0c0.2,9.5,0.4,19.6,0.7,29.1
		c0.1,3.2,0,6.4-0.9,9.6c-2.4,8.2-8.8,10.8-16.2,10.1c-4.8-0.5-7.8-3.4-9.5-7.5c-1.2-2.8-1.5-5.7-1.5-8.7c0-10.4,0.1-22.2,0.1-32.6
		h-8.9C230.4,12.3,230.3,23.6,230.4,33.6z"/>
	<path d="M98,13.9c-4-7-10.4-11-18.7-12.3c-1.9-0.3-3.7-0.4-5.5-0.4v0c0,0,0,0,0,0c0,0,0,0,0,0v0c-1.8,0-3.6,0.1-5.5,0.4
		c-8.2,1.3-14.6,5.3-18.7,12.3c-3.8,6.6-4.4,13.7-2.9,20.9c1.3,6,4.4,11.1,9.5,14.8c5,3.7,10.8,5.2,17.5,5.3v0c0,0,0,0,0,0
		c0,0,0,0,0,0v0c6.7-0.1,12.5-1.6,17.5-5.3c5.2-3.8,8.2-8.8,9.5-14.8C102.4,27.6,101.8,20.5,98,13.9z M91.6,34.8
		c-0.6,3.9-1.9,7.6-4.3,10.9c-3.3,4.4-8.2,6.8-13.5,6.7c-5.3,0.1-10.2-2.4-13.5-6.7c-2.4-3.3-3.7-7-4.3-10.9
		c-0.8-5.5-0.8-11.1,0.8-16.5c1.4-4.9,3.9-9.1,8.5-11.9C68,4.7,70.9,3.9,73.8,4c2.9,0,5.9,0.8,8.5,2.4c4.6,2.9,7.1,7.1,8.5,11.9
		C92.4,23.7,92.4,29.3,91.6,34.8z"/>
</g>
</svg>
